<?xml version="1.0" encoding="utf-8"?>
<!-- Generator: Adobe Illustrator 15.0.0, SVG Export Plug-In . SVG Version: 6.00 Build 0)  -->
<!DOCTYPE svg PUBLIC "-//W3C//DTD SVG 1.1//EN" "http://www.w3.org/Graphics/SVG/1.1/DTD/svg11.dtd">
<svg version="1.1" xmlns="http://www.w3.org/2000/svg" xmlns:xlink="http://www.w3.org/1999/xlink" x="0px" y="0px" width="300px"
	 height="300px" viewBox="0 0 300 300" enable-background="new 0 0 300 300" xml:space="preserve">
<g id="Layer_1">
	<g id="UKole1.tif">
		<g>
			<g>
				<path fill-rule="evenodd" clip-rule="evenodd" d="M179.5,85c16.6-5.524,17.066,4.099,26,13c5.752,5.731,8.111,10.355,13,20
					c14.29,28.193-28.336,34.808-46,19c-3.222-2.883-10.16-11.797-11-16C157.421,100.588,178.273,98.985,179.5,85z M180.5,87
					c-0.495,5.054,5.192-3.302,7,1c-20.128,9.449-30.8,29.793-15,46c7.599,7.794,22.202,9.703,36,9c25.45-15.923-4.451-45.443-17-57
					C187.825,86.325,182.646,85.147,180.5,87z"/>
				<path fill-rule="evenodd" clip-rule="evenodd" d="M191.5,97c4.055-0.388,1.102,6.232,2,9c2.646,3.222,12.245,5.943,13,0
					c3.356,0.914,0.495,1.859,1,5c-5.286,2.555-10.137-1.111-16-1C191.5,105.667,191.5,101.333,191.5,97z"/>
				<path fill-rule="evenodd" clip-rule="evenodd" d="M207.5,160c-15.134-3.533-23.823-13.51-39-17c-9.815,9.486-28.913,5.791-36,17
					c-5.29,8.366-3.934,26.078-6,38c-1.222,7.05-2.716,14.479-7,20c2.768,0.898,9.388-2.055,9,2c-4.333,0-8.667,0-13,0
					c-2.281-2.386-3.221-6.113-4-10c4.475-0.142,2.874,5.792,5,8c15.561-27.235,2.114-82.553,49-78c11.075,1.076,17.913,6.54,27,11
					C198.215,153.805,205.05,155.287,207.5,160z M139.5,153c7.638-3.362,16.716-5.284,22-11C149.85,140.691,141.4,147.889,139.5,153
					z"/>
				<path fill-rule="evenodd" clip-rule="evenodd" d="M209.5,152c4.188,3.147,3.073,17.525-5,15
					C208.572,164.405,210.703,159.87,209.5,152z"/>
				<path fill-rule="evenodd" clip-rule="evenodd" d="M144.5,220c5.655,2.817,8.812,12.999,6,21
					C140.737,242.291,143.127,226.562,144.5,220z M149.5,239c0.243-6.243-0.303-11.697-4-14
					C145.323,231.177,144.961,237.538,149.5,239z"/>
				<path fill-rule="evenodd" clip-rule="evenodd" d="M130.5,242c8.357,0.451,9.194,15.809,0,16
					C128.883,253.006,129.63,247.186,130.5,242z M131.5,255c4.751,1.08,3.584-12.19,0-8C133.565,247.859,132.555,253.961,131.5,255z
					"/>
				<path fill-rule="evenodd" clip-rule="evenodd" d="M120.5,114c-7.528-8.806-13.591-19.076-30-19
					c-7.331,10.072-17.247,13.461-19,31c-0.654,6.54-5.087,12.945-6,19c-1.613,10.698,0.541,22.978-1,35
					c4.646,14.688,9.362,29.305,12,46c4.095,3.238,7.949,6.718,9,13c6.8,5.867,18.418,6.916,23,15
					c-13.631-5.035-24.529-12.805-32-24c-1.045,10.721,6.15,18.504,6,25c-5.736-5.597-7.721-14.946-8-26
					c-18.082-21.251-15.108-63.559-15-103c5.508,31.689-3.867,77.802,14,97c-4.575-20.811-14.332-50.097-10-79
					c0.991-6.613,6.831-11.826,5-19c-4.768-1.435,0.768,7.435-4,6c-0.373-11.373,7.771-14.229,5-28c4.054-0.388,1.102,6.232,2,9
					c5.45-5.55,9.528-12.472,14-19c-3.92-1.08-12.315,2.315-13-2c5,0,10,0,15,0c-0.658-1.342-2.138-1.862-4-2
					c16.012-1.988,18.55-17.45,29-25c24.167-6.599,50.402-17.604,80-10c-0.85,1.483-2.517,2.15-5,2c14.518,10.149,24.9,24.433,35,39
					c0.905,14.095,6.537,23.463,14,31c0.127,6.995,5.818,11.779,7,20c2.669,18.566-2.533,42.083,2,59c1.258-0.247,1.009-1.988,0-2
					c3.757-0.284,1.533,14.683,0,19c-3.814,10.742-12.17,24.862-17,33c3.712-14.621,8.051-28.615,15-40
					c-0.06-50.606-10.758-90.576-31-121c5.293,1.04,3.98,8.686,9,10c0.049-8.716-6.889-10.445-9-17c-1.172,0.162-0.844,1.823-1,3
					c-4.021-3.312-2.201-12.465-9-13c3.599-7.611-10.384-13.125-16-18c-4.213,0.454-4.604,4.729-8,6c1.025,2.308,6.695-0.028,6,4
					c-4.367,0.701-5.633-1.701-10-1c-6.386,1.947-6.424,10.243-6,19c-6.279,7.388-12.634,14.699-12,29c-3.292,0.042-4.979,1.688-9,1
					c-0.306-2.306,2.889-1.111,3-3c-10.267-13.884,4.293-25.18,3-42c2.466-0.518,7.451,0.73,8-4c-13.106-3.473-28.503-6.939-42-3
					c-12.212,3.564-17.286,17.725-25,24c6.103,7.564,24.099,3.234,28,13c-3.156-0.489-3.531,1.802-7,1
					c3.819,9.181,13.169,12.831,18,21c-1.333,0-2.667,0-4,0c-0.691,4.024,4.211,2.456,4,6c-6.268,0.935-6.03-4.636-7-9
					c-9.976-12.188-32.625-5.931-38,6c3.044,1.956,9.205,0.795,12,3c-0.163,1.163,0.221,1.779,1,2c0.545,7.878-5.263,9.404-12,10
					c-1.512,16.885,7.245,25.226,21,22c12.956-3.038,25.613-27.596,25-40c7.031,16.826-12.268,32.063-22,42c-5.333,0-10.667,0-16,0
					C73.424,150.918,86.778,98.047,120.5,114z M131.5,62c11.882-2.505,18.771,2.305,31,2c-0.475-3.88,6.188-9.921,2-11
					C154.251,56.75,138.869,55.369,131.5,62z M170.5,64c2.764,0.07,6.8-7.179,10-10c-4.26-0.074-6.994-1.673-12-1
					C169.507,56.326,166.289,63.878,170.5,64z M177.5,63c1.987-2.013,4.73-3.27,6-6C180.918,57.801,175.023,60.457,177.5,63z
					 M161.5,74c2.826,0.826,2.591-1.409,5-1c-0.171-2.829,0.86-6.86-2-7C163.155,68.322,162.845,71.678,161.5,74z M157.5,82
					c0.938-0.845,2.136-6.375,0-7C157.504,76.786,154.807,80.817,157.5,82z M160.5,90c-0.068-4.677,6.917-12.04,3-14
					C161.883,79.41,158.426,86.223,160.5,90z M150.5,101c0.798-2.585,3.214-8.719,2-10C152.006,93.888,148.101,98.534,150.5,101z
					 M118.5,100c-1.574-0.52-5.355-3.85-7-1C113.074,99.52,116.855,102.85,118.5,100z M152.5,110c1.22-1.514,1.963-8.614,0-10
					C151.373,104.544,147.899,107.082,152.5,110z M241.5,156c0.754-15.421-5.555-23.778-11-33
					C233.901,134.265,237.373,145.46,241.5,156z M86.5,141c11.168,0.108,18.276-11.698,2-11C87.866,133.699,85.787,135.953,86.5,141
					z"/>
				<path fill-rule="evenodd" clip-rule="evenodd" d="M144.5,185c6.349-0.015,3.285,9.382,4,15
					C139.728,201.514,144.655,189.555,144.5,185z"/>
			</g>
		</g>
	</g>
</g>
<g id="Layer_2">
</g>
</svg>
